<svg xmlns="http://www.w3.org/2000/svg" xmlns:xlink="http://www.w3.org/1999/xlink" viewBox="0 0 240 240"><image width="240" height="240" xlink:href="648523619B884135.png" overflow="visible" opacity=".25"/><circle cx="119" cy="118" r="114.5" fill="#ffde35"/><path d="M119 6c29.9 0 58 11.7 79.2 32.8C219.3 60 231 88.1 231 118s-11.7 58-32.8 79.2C177 218.3 148.9 230 119 230s-58-11.7-79.2-32.8C18.7 176 7 147.9 7 118s11.7-58 32.8-79.2C61 17.7 89.1 6 119 6m0-5C54.4 1 2 53.4 2 118s52.4 117 117 117 117-52.4 117-117S183.6 1 119 1z" fill="#fff"/><path d="M81 66h24v24H81zM81 114h24v24H81z"/><g><path d="M81 154h24v62H81z"/></g><g><path d="M129.7 169c14.8-15.4 26.2-35.6 26.2-63.6 0-27.8-11.2-47.7-26.2-63.1h14.1C157.1 55 171 75 171 105.6c0 30.5-13.9 50.2-27.2 63.4h-14.1z"/></g></svg>